<svg xmlns="http://www.w3.org/2000/svg" width="400" height="116" viewBox="0 0 400 116">
    <path fill="#3fc1be" d="M276.2 0h37v39.5h-37z"/>
    <path fill="#fec140" d="M319.6 0h37v39.5h-37z"/>
    <path fill="#e43a5d" d="M363 0h37v39.5h-37z"/>
    <path fill="#000000" d="M0 50l14.8-.1c5.2 0 9 1.5 11.3 4.5 2.3 3 3.4 7.3 3.4 12.9 0 5.1-1.1 9.3-3.5 12.5-2.4 3.2-6 4.8-11 4.9h-9.1l.1 31.2h-5.8l-.2-65.9zm13.3 30c3.8 0 6.5-1 8.1-2.8 1.6-1.9 2.4-5.2 2.4-9.8 0-3.4-.3-6-.9-7.9-.6-1.8-1.7-3.1-3.1-3.9-1.5-.8-3.6-1.1-6.4-1.1h-7.5l.1 25.5h7.3zM36.7 49.8h5.9l.1 29.2 19.4-.1-.1-29.2h5.8l.3 65.9h-5.8l-.1-32.1-19.4.1.1 32.1h-5.9l-.3-65.9zM78.7 49.6l14.8-.1c5.2 0 9 1.5 11.3 4.5 2.3 3 3.4 7.3 3.4 12.9 0 5.1-1.1 9.3-3.5 12.5-2.4 3.2-6 4.8-11 4.9h-9.1l.1 31.2h-5.8l-.2-65.9zm13.3 30.1c3.8 0 6.5-1 8.1-2.8 1.6-1.9 2.4-5.2 2.4-9.8 0-3.4-.3-6-.9-7.9-.6-1.8-1.7-3.1-3.1-3.9-1.5-.8-3.6-1.1-6.4-1.1h-7.5l.1 25.5h7.3zM114.7 49.5l13.6-.1.3 65.9-13.6.1-.3-65.9zM137.6 49.4h9.6l12.8 31.6-.1-31.7 11.3-.1.3 65.9h-9.2l-12.8-34.1.1 34.2-11.7.1-.3-65.9zM183.8 111.1c-2.9-3.3-4.4-8.6-4.7-15.9l11.7-1.9c.1 4.2.5 7.2 1.4 9 .9 1.8 2.2 2.7 4 2.7 2.3 0 3.4-1.6 3.4-4.8 0-2.5-.6-4.7-1.7-6.6-1.1-1.8-2.8-3.8-5.2-5.9l-5.4-4.9c-2.7-2.4-4.7-4.9-6.2-7.6s-2.2-5.9-2.2-9.6c0-5.5 1.5-9.8 4.6-12.8 3.1-3 7.3-4.5 12.7-4.5 5.8 0 9.8 1.8 12 5.4 2.1 3.6 3.3 8 3.4 13.3l-11.6 1.4c-.1-3.4-.4-5.9-.9-7.4s-1.5-2.2-3.2-2.2c-1.2 0-2.1.5-2.7 1.6-.6 1.1-.9 2.2-.9 3.5 0 2.2.5 4.1 1.4 5.6.9 1.5 2.5 3.2 4.6 5.2l5.1 4.8c3.1 2.8 5.4 5.7 7.1 8.8 1.7 3.1 2.5 6.7 2.6 11 0 3.1-.7 5.9-2 8.4s-3.2 4.5-5.7 6c-2.4 1.5-5.3 2.2-8.5 2.2-5.8.1-10.2-1.5-13.1-4.8zM219.6 49l13.6-.1.3 65.9-13.6.1-.3-65.9zM245.8 109.8c-2.6-3.9-3.9-9.6-4-16.8l-.1-22.1c0-7.4 1.4-13.1 4.2-17 2.8-3.9 7.6-5.9 14.3-5.9 6.5 0 11.1 1.6 13.9 5 2.8 3.4 4.2 8.1 4.2 14.2v4.2h-13.3v-5.4c0-2.6-.3-4.6-.9-5.9-.6-1.3-1.8-2-3.7-2-2 0-3.3.7-3.8 2.2-.6 1.5-.9 3.5-.9 6.1l.1 30.5c0 2.6.4 4.7 1.1 6.1.7 1.5 2.1 2.2 4 2.2 3.6 0 5.3-2.9 5.3-8.6v-7.7h-5.6v-8.5l17.8-.1.1 34.2h-9l-.8-5.5c-1.9 4.3-5.2 6.5-10 6.5-6 .2-10.3-1.7-12.9-5.7zM287.1 48.7l13.6-.1.1 26.7h9.5l-.1-26.7 13.7-.1.3 65.9-13.7.1-.1-28.8h-9.5l.1 28.8-13.6.1-.3-65.9zM338.9 59.3h-9.3v-10.8l32.2-.1v10.8h-9.2l.2 55.1-13.7.1-.2-55.1zM370.7 110.2c-2.9-3.3-4.4-8.6-4.7-15.9l11.7-1.9c.1 4.2.5 7.2 1.4 9 .9 1.8 2.2 2.7 4 2.7 2.3 0 3.4-1.6 3.4-4.8 0-2.6-.6-4.7-1.7-6.6-1.1-1.8-2.8-3.8-5.2-5.9l-5.4-4.9c-2.7-2.4-4.7-4.9-6.2-7.6-1.5-2.7-2.2-5.9-2.2-9.6 0-5.5 1.5-9.8 4.6-12.8 3.1-3 7.3-4.5 12.7-4.5 5.8 0 9.8 1.8 12 5.4 2.1 3.6 3.3 8 3.4 13.3l-11.7 1.6c-.1-3.4-.4-5.9-.9-7.4s-1.5-2.2-3.2-2.2c-1.2 0-2.1.5-2.7 1.6-.6 1.1-.9 2.2-.9 3.5 0 2.2.5 4.1 1.4 5.6.9 1.5 2.5 3.2 4.6 5.2l5.1 4.8c3.1 2.8 5.4 5.7 7.1 8.8 1.7 3.1 2.5 6.7 2.6 11 0 3.1-.6 5.9-2 8.4-1.3 2.5-3.2 4.5-5.7 6-2.4 1.5-5.3 2.2-8.5 2.2-5.7 0-10.1-1.7-13-5z"/>
</svg>
